<svg xmlns="http://www.w3.org/2000/svg" version="1.0" viewBox="0 0 392 392"><path d="M168 3.6c-18.2 2.5-34.4 7.6-52.5 16.5-21.5 10.6-32.4 18.5-49.7 36-19.6 20-33 41.6-41.6 67.4-7.4 22.2-9.2 33.5-9.2 58 0 23.2 2 36.4 8.6 56.5 8.7 26.5 24.3 51.6 44.1 71.1 21.2 20.7 41.4 33 72.3 43.9 1.9.7 6 1.8 9 2.5s7.3 1.8 9.5 2.4c8.1 2.3 34.5 3.5 50.8 2.4 42.1-3.1 81.6-21.5 111.8-52.1 38.7-39.1 56.9-90.3 51.5-144.7-4.1-41.2-20.3-76.6-48.5-105.8-24.8-25.6-51.5-41.3-86.1-50.6-18.5-4.9-48.2-6.4-70-3.5m48.5 19.5c34.1 4.5 64.9 20.1 90.8 46 7 7.1 12.7 13.2 12.7 13.6s-3.9 2.8-8.8 5.3c-4.8 2.4-13.6 7.2-19.7 10.5-18.7 10.5-89.1 46.5-90.8 46.5-.3 0 5.5-9.1 12.9-20.2C231.9 97.6 232 97.3 232 91.3c0-6.1-6-19-11-23.8-3-2.9-3.4-3-12.8-3s-16.1 1.1-33.2 5.7c-8.9 2.4-53.8 16.9-69.9 22.7-6.3 2.3-11.6 3.9-11.8 3.7-.5-.4 10.6-11.5 13.4-13.3 3.1-2.1 2.9-3.3-.6-3.3-5.4 0-20.3 8.6-29.1 16.7-9.5 8.8-11.9 12.8-15 24.3-1.3 4.7-3.3 11.7-4.6 15.7-1.3 3.9-2.4 8.5-2.4 10.3 0 7.5 5.7 12 13 10 2-.6 13.3-5.7 25.1-11.4 23.6-11.4 27.2-13.1 46.9-21.7 7.4-3.3 14.4-6.4 15.5-6.9 10.1-4.8 32.7-12.9 43.2-15.5 5.9-1.5 7.4-1.6 8.7-.6 2.2 1.9 2 3.9-.9 9.4-4.5 8.3-32.9 47.6-36.4 50.4-.9.7-2.7 1.8-4.1 2.5-2.7 1.4-15.6 8.4-23 12.5-14 7.7-19 14.7-19 26.2 0 5.2.6 8.3 2 11.1l2 4-27.2 34c-14.9 18.7-27.5 34-27.9 34-.3 0-3.1-3.3-6.1-7.3C43 246.4 31.6 207 35 167.9c2.2-24.6 8.9-46.1 21.1-67.1C80.3 59 125.3 28.8 172 23.1c17-2.1 28-2.1 44.5 0m121 88.4c9.4 19.2 13.8 35 15.6 56.2 3.4 39.5-7.7 78.2-31.5 109.7-8.5 11.2-15.6 18.7-25 26.2l-8.1 6.5-.7-6.9c-1.6-15.5-7.2-22.9-28.3-37.4-14.3-9.9-35.3-24.2-53.5-36.4-27.3-18.4-42-28.8-42-29.6 0-1.3 15.2-23.8 16.1-23.8 1.6 0 84.8-40.8 105.9-52 8.9-4.7 9.8-5 14.7-4.4 4.5.5 5.9.2 9.5-1.9 4.8-2.8 9.3-7.5 15.2-15.6 4.7-6.4 4.1-6.8 12.1 9.4M175.3 251.7c39.5 26.6 86 57.6 94.6 63.1l6.4 4.1-11.4 5.5c-12.9 6.2-24.9 10.4-39.4 13.7-8.7 2-12.8 2.3-31 2.3-18.3 0-22.3-.3-31.5-2.3-26.8-5.9-48.4-15.9-68-31.6-6.6-5.3-8.4-7.5-5.9-7.5.5 0 5.9-4.8 11.8-10.8 9.6-9.5 10.9-11.2 11.6-15.2.6-3.6 3.4-8 15.2-23.7 8-10.6 14.7-19.3 14.9-19.3s14.9 9.8 32.7 21.7"/></svg>