<svg xmlns="http://www.w3.org/2000/svg" version="1.0" viewBox="0 0 736 221"><path fill="#40BF80" d="M96 .7c-.5 11.9-5.1 23.8-12 31.2-2.2 2.4-4 4.5-4 4.8 0 .2 1.5.1 3.4-.3 4.6-.8 16.9 1.4 23.1 4.2 2.8 1.2 7.1 4.3 9.7 6.8s4.9 4.6 5.2 4.6.6-2.8.6-6.3c0-11.3 4.8-23.2 12.2-30.7l3.7-3.7-8.9-.6c-4.9-.3-10.4-1.2-12.2-2-9.2-4-11.8-5.5-13.1-7.5C102.9-.1 96-.5 96 .7"/><path fill-opacity=".5" d="M646.8 209.7c5 .2 13.4.2 18.5 0 5-.1.9-.3-9.3-.3s-14.3.2-9.2.3"/><path d="M584.8 11.6c-.5.4-.8 3.1-.8 6 0 5.2-.5 6.6-7.8 19.9-2.5 4.7-7.8 8.3-13.4 9-8.4 1.1-8.6 1.8-1.8 9.2 6.4 7 6.5 7.4 7.5 20.9.9 11.8.4 13-5.8 14.3-2.9.5-7.9 1.7-11.2 2.5-3.3.9-9 1.6-12.7 1.6-7.8 0-11.6 1.4-12.4 4.6-.8 3 1.2 6.4 3.7 6.4 2.4 0 16.3-3.8 20.6-5.7 1.7-.7 5.1-1.8 7.5-2.3s5.5-1.2 6.9-1.5c3.7-.9 4 1 3.2 19.7-.5 13.9-.4 15.8.9 15.8 2.2 0 7.2-8.8 17.7-31 1.7-3.6 3.8-7.4 4.8-8.6 2.1-2.4 8-5.1 14.3-6.4 2.5-.5 7.9-1.6 12-2.4 4.1-.9 9-1.6 10.8-1.6h3.2v33h-4.5c-4.7 0-6.5-1.6-6.5-5.9 0-6.2-20.7-18.8-22.6-13.8-.3.9.1 4.1 1 7.1 1.3 4.5 2.6 6.4 7.3 10.5 3.1 2.8 6.3 5.1 7.1 5.1 2.5 0 9.2 10.1 9.2 13.9 0 1.2-.9 2.2-2.2 2.6s-4.2 1.5-6.5 2.6c-2.4 1-5.4 1.9-6.7 1.9-1.4 0-2.7.4-3 .9-.3.4-2.7 1.4-5.3 2.1-2.7.7-7.4 3-10.7 5.2-6.9 4.5-12.6 5-20.1 1.8-8.6-3.7-24.5-2-24.5 2.6 0 1.2.8 3.2 1.8 4.5 1.8 2.4 12.2 23.2 16 31.9 2.3 5.5 3.5 11.2 2.6 13.4-.4.9-1.7 1.6-3.4 1.6-1.5 0-4 .4-5.6 1-1.6.5-6.7 1.4-11.4 2-6.9.8-8.8 1.4-10.2 3.3-1.9 2.4-2.4 6.2-.8 7.2 1 .6 17.5-2.3 20.1-3.6.9-.4 5.2-1.5 9.5-2.3 4.4-.8 9.5-2 11.4-2.6s6.4-1.5 10-2 9.7-1.5 13.5-2.3c9.2-1.9 32.4-3.1 35.8-1.8 1.5.6 2.7 1.9 2.9 3.3.3 2.3.4 2.3 19.8 2.9 10.7.3 21.8 1.2 24.5 1.8 2.8.7 7.7 1.4 11 1.7 7.5.6 11-1.3 14.4-7.9l2.3-4.6-2.1-2.9c-1.1-1.7-2.1-3.4-2.1-3.9-.1-.4-1.8-1.9-3.8-3.3-3.5-2.3-4.3-2.4-17.9-2.3-16 .2-15.7.4-12.4-7 5.2-11.9 6.5-18.5 6.6-32.8v-13.8l-3.5-3c-1.9-1.6-5.3-3.3-7.5-3.6-5.9-1.1-9.2-3.3-9.9-6.9-.3-1.7-.9-10.2-1.2-18.8-.5-11.6-.4-16.5.6-18.8 1.2-2.9 1.4-3 8.2-3 4.2 0 8 .6 9.8 1.5 2.2 1.1 7.8 1.7 20.3 2.2 15.4.5 17.4.4 18.9-1.1 1.4-1.4 1.5-2.1.6-4.1-.6-1.4-1.5-2.5-1.9-2.5-.5 0-1.8-1-2.9-2.3-2.1-2.2-2.4-2.2-28.4-2.1l-26.3.1-.7-6.6c-.3-3.6-.6-9-.6-11.9 0-10.5-6.3-17.2-16.2-17.2-2.7 0-6.2.6-7.6 1.4-7 3.7-13.3 6.6-14.4 6.6-.7 0-2.4.9-3.8 2s-3.1 2-3.9 2-3.3.9-5.5 2c-3.4 1.6-5.3 1.8-11.4 1.3-5-.4-7.6-1.1-7.9-2-.6-1.4 3.3-6.3 4.9-6.3.5 0 2.1-.8 3.5-1.7 4.4-2.9 10.8-5 21.8-7.3 8.9-1.8 11.6-3 12.6-5.8.8-2.1.5-3-1.8-5.4-1.4-1.5-3.2-2.8-3.8-2.8-.7 0-2.7-.8-4.6-1.7-5.9-3-27.6-7.3-29.1-5.7m44.3 34.1c2.3.6 2.9 4.5 2.9 17.9V75l-2.7 1.1c-1.5.5-4.1.9-5.7.7-3-.3-3.1-.4-2.9-5.1.4-7.5-.4-8.3-10.2-9.8-4.7-.7-8.7-1-8.9-.8-.6.6 3.2 8.6 4.3 9.4.5.3 1.2 1.9 1.6 3.6 1 4.5-2.4 7.9-8.1 7.9h-4.3l.6-10.8c.5-11.1 1.6-14.3 5.8-16.6 1.1-.6 3.2-1.9 4.7-2.9 1.4-.9 3.3-1.7 4.2-1.7s1.6-.4 1.6-.9 1-1.2 2.3-1.6c7.5-2.5 10.4-3.2 11.7-2.8.8.3 2.2.7 3.1 1m21.9 95.8c.9 1.1 1.1 4.7.7 13.3-.5 13.8-3 22.6-7.1 25.6-2.6 2-2.6 2-7.1-.2-5-2.4-5.6-4.5-3-9.6.8-1.5 1.5-3.2 1.5-3.8 0-.5.9-2.7 1.9-4.9 1.1-2.1 2.2-7.2 2.6-11.3.7-7 .9-7.4 3.9-8.9 4-2 5.1-2 6.6-.2m-35.2 26.6.2 22.7-3.2.6c-8.8 1.8-11.1 1.9-12.4.1-1.1-1.5-1.4-1.5-2.9.8-1.2 1.9-3.5 3-10 4.6-12 3-11.9 3-11.2-2.7.4-2.6 1.1-6.7 1.7-9.2s1.5-9.4 2-15.3c.9-11.4 2-14 5.4-13.5 2 .3 2.1 1.1 2.6 11.8.4 8.9 1 12.4 2.5 15.2 2.3 4.3 2.5 4.4 7.1 2.2 2.5-1.2 3.8-1.3 4.7-.6 1 .9 1.6.3 2.7-2.6.7-2 1.6-3.9 2.1-4.2.4-.3 1.3-4.3 1.8-8.9.6-4.6 1.6-9 2.2-9.7.7-.9.9-3.3.4-6.9-.7-6-.2-7.8 2.3-7.3 1.5.3 1.7 2.8 2 22.9m16.2 16.4c0 1.6-.7 2.4-2.5 2.7-1.3.3-2.7.3-3 0-1.1-1.1-.4-4.2 1.2-5 2.4-1.4 4.3-.4 4.3 2.3M314.5 41.2c-1.1.7-4 1.5-6.5 1.8l-4.5.5-.7 20c-.4 11-1.2 30.3-1.8 43-.5 12.6-1 34.7-1 49v26l4.7 6.2c4.2 5.7 5 6.3 8.2 6.3 3.5 0 7.5-2.7 11-7.2 2-2.7 4.1-19.3 4.1-33.8 0-15.5.7-21 2.6-21 1.5 0 11.4 9.7 19.4 19 5.2 6.1 11.3 13.2 13.5 15.6.6.6 3.5 4 6.5 7.5 3 3.4 9.3 10.3 13.9 15.1l8.4 8.8h5.9c5.1 0 6.4-.4 9.9-3.2 3.7-3 3.9-3.4 3.9-8.9 0-4.1-.6-6.8-2-9.1-1.1-1.8-2-4.3-2-5.4 0-1.3-1.6-3.6-3.9-5.5-15.2-13.1-22-19-26.1-22.9-2.6-2.5-10.4-9.8-17.4-16.4-6.9-6.5-12.6-12.4-12.6-13 0-1.7 5.4-7.2 19-19.1 18.8-16.5 37-33.8 37-35.3 0-.6.7-1.2 1.4-1.5.8-.3 2.2-1.9 3-3.5 1.5-2.9 1.5-3.1-2.2-7.1-3.7-4.1-3.8-4.1-11.1-4.1-5.8 0-8.1.5-11 2.2-2 1.2-3.9 2.7-4.3 3.2-2.5 3.8-4 5.7-9.8 13-3.6 4.5-8.3 10-10.5 12.3-2.2 2.2-7 7.2-10.6 10.9-13.9 14.4-17.7 16.9-19.3 12.8-.3-.9-.7-10.4-.7-21.2-.1-10.8-.4-22.6-.8-26.1-.6-6-.8-6.5-4.1-8.2-4-2.2-6.6-2.3-9.5-.7"/><path fill-opacity=".9" d="M647.3 208.7c5.4.2 13.9.2 19 0 5.1-.1.7-.3-9.8-.3-10.4 0-14.6.2-9.2.3"/><path fill-opacity=".6" d="M329.4 68.5c0 8.2.2 11.5.3 7.2.2-4.3.2-11 0-15-.1-4-.3-.5-.3 7.8"/><path fill="#0040BF" d="M143.8 20.2c-2.1 2.2-3.8 4.2-3.8 4.6 0 .3-.8 1.5-1.8 2.6-2.9 3.2-6.4 13.8-6 18.2l.3 3.9 7.5 1.2c4.1.7 8.6 1.7 10 2.2 1.4.6 4.2 1.3 6.3 1.7 2.5.4 5 1.9 7.1 4 1.8 1.9 3.9 3.4 4.7 3.4 1.8 0 15.9 9 15.9 10.1 0 .5.9.9 1.9.9 1.1 0 3 1.3 4.3 3C194 80.9 204 91.1 204 90.1c0-.5.8-.7 1.9-.4 1.2.3 2-.2 2.4-1.6.3-1.2 1.2-2.1 2-2.1s1.7-.9 2-2 1.2-2 2.1-2 1.6-.7 1.6-1.5.9-1.9 2-2.5 2-1.7 2-2.5.8-1.5 1.8-1.5c1.6 0 4.2-4 4.2-6.7 0-2.1-2.2-6.3-3.1-5.7-.5.3-1.6-1.2-2.4-3.3C218.9 54.5 200 35 198 35c-.6 0-2-.8-3-1.8-2.7-2.5-15.3-9-22-11.4-5.5-2-22.3-5.9-24.4-5.7-.6.1-2.8 1.9-4.8 4.1M48 64.2c0 .7-.9 2.4-2 3.8s-2 3.2-2 4-.9 2.6-2 4-2 3.3-2 4.3-.7 3.2-1.6 5c-2.6 4.9-6.4 25.1-6.4 33.6 0 8.2 3.7 28.1 6.4 34.5.9 2.1 1.6 4.5 1.6 5.2s.9 2.8 2.1 4.6c1.8 2.8 2 2.9 1.4.8-5.6-21-4.5-39.5 3.7-61 .7-2 2.1-4.8 3.1-6.3.9-1.4 1.7-3 1.7-3.5 0-.4 1.3-2.6 2.9-4.8 2.8-3.7 2.9-4.1 1.7-8.4-1-4-2.4-7.4-5.9-14.8-1.1-2.4-2.7-3-2.7-1"/><path fill="#004080" d="M52 43.9c0 .6.4 1.3 1 1.6.5.3 2.1 3 3.5 5.9 2.3 4.9 2.7 5.2 5.6 4.8 4.7-.7 8.4-2.8 6.7-3.8-3.4-2.3-5.6-3.5-9.4-5.3-2.3-1.1-4.5-2.4-4.8-3-.9-1.3-2.6-1.4-2.6-.2M164.2 61c.3.8 1.3 1.7 2.4 1.9 1 .2 4 1.8 6.7 3.7 2.6 1.9 5.1 3.4 5.5 3.4.5 0 3.7 2.7 7.1 6 6.6 6.3 9 7.6 7 3.7-1.9-3.6-5.1-6.7-7.1-6.7-1 0-1.8-.4-1.8-.9 0-1.2-14.1-10.1-16-10.1-.9 0-2.2-.6-2.9-1.3-1.1-1-1.3-.9-.9.3m61.8 6.1c0 2.9-2.5 6.9-4.2 6.9-1 0-1.8.7-1.8 1.5s-.9 1.9-2 2.5-2 1.7-2 2.5-.7 1.5-1.6 1.5-1.8.9-2.1 2-1.2 2-2 2-1.7.9-2 2.1c-.4 1.4-1.2 1.9-2.4 1.6-2.8-.8-3 1.7-.3 5.6 1.3 2 2.4 4.1 2.4 4.6 0 .6.9 3 1.9 5.3 4.1 9 5.5 16.2 6.1 30.8.4 8 .7 13.8.8 12.8s.8-1.4 2.1-1.1c1.2.3 2.6-.5 3.9-2.2 1.2-1.5 2.6-2.4 3.1-2.1.5.4 1.2-.3 1.6-1.4.3-1.1 1.2-2 2-2 .7 0 1.5-.8 1.7-1.7.2-1 1.2-1.8 2.3-1.8s1.9-.5 1.8-1.2c-.2-.7.6-1.7 1.7-2.3s2-1.8 2-2.8c0-1.5.2-1.5 1.1-.2.8 1.1.9-3 .5-14.4-.6-16.3-2.3-24.8-6.7-33.9-1.1-2.2-1.9-4.4-1.9-5 0-1.9-6-11.4-6-9.6"/><path fill="navy" d="M66.5 55c-.3.5-1.9 1-3.6 1q-5.4 0-.9 7.2c1.1 1.8 2 4 2 4.8 0 .9.9 3.3 2 5.5s2 5.1 2 6.5.4 3 .8 3.5c.5.6 1.4 3.5 2 6.5s1.7 8 2.3 11 1.4 13.8 1.6 24c.5 15.8.2 20.5-1.6 32-2.3 14.2-6.6 31.9-8.2 33.5-2.3 2.3-.6 5.1 6.1 10.2 3.8 2.9 7.3 5.3 7.9 5.3s1.1.4 1.1.9c0 1.8 27.9 14.1 32.2 14.1 1.8 0 5.3-13.9 7.7-30l.6-4.5 6 .3c3.3.1 8.5.9 11.5 1.7 3 .7 7.6 1.9 10.3 2.6 2.6.6 5 1.6 5.3 2 .3.5 1.5.9 2.6.9 1.2 0 4.2.9 6.7 2.1 2.5 1.1 7.1 3.2 10.1 4.6s6.2 2.9 7 3.4 2.2 1.2 3 1.5c2.6 1 5.4 2.4 9.5 4.9 6 3.7 10 5.3 10.3 4.3.5-1.2-2.7-14.6-4.4-18.5-.8-1.7-1.4-3.4-1.4-3.9 0-2.6-10.2-20.4-12.2-21.2-.4-.2-.8-.8-.8-1.3 0-1.3-13.6-14.9-14.9-14.9-.5 0-1.1-.4-1.3-.9-.7-1.9-18.8-12-21.6-12.1-.8 0-2.6-.6-4-1.4-1.5-.8-5.4-1.9-8.7-2.6-12-2.3-13.5-3-13.5-6.1 0-2.3 1-3.5 5.4-6.3 2.9-2 5.8-3.6 6.3-3.6s1.8-.9 2.8-2 2.6-2 3.6-2 2.1-.5 2.5-1.1c.3-.6 2.1-1.8 3.8-2.6s4.7-2.4 6.8-3.6c2-1.2 6.2-3.7 9.5-5.5 3.2-1.8 6.5-3.7 7.3-4.2s3.1-1.8 5-2.8c1.9-1.1 4.7-2.6 6.2-3.4s5-3.7 7.8-6.5c5.1-5 5.1-5.2 3.6-7.6-1.6-2.4-10.9-10.7-12-10.7-.3 0-2.8-1.6-5.6-3.6-5.3-3.8-10.5-4.8-13.1-2.6-2.1 1.8-8 5.6-11.4 7.3-1.7.9-4.8 2.6-7 3.9s-6.5 3.6-9.5 5.3c-3 1.6-6.2 3.5-7 4.2s-2.8 1.9-4.5 2.7c-1.6.8-4.9 2.6-7.3 3.9-4.8 2.6-6.4 2.2-9.2-2.2-5-8.2-6.3-9.9-7.1-9.9-.5 0-.9-.5-.9-1.1 0-.7-1-2.1-2.2-3.3-1.3-1.2-3.5-3.5-4.9-5.2C84.6 64.6 78.3 59 77.1 59c-.6 0-1.1-.4-1.1-1 0-1.1-5.3-4-7.4-4-.8 0-1.8.4-2.1 1M239 130.3c0 .9-.9 2.1-2 2.7s-1.9 1.6-1.7 2.3c.1.7-.7 1.2-1.8 1.2s-2.1.8-2.3 1.8c-.2.9-1 1.7-1.7 1.7-.8 0-1.7.9-2 2-.4 1.1-1.1 1.8-1.6 1.4-.5-.3-1.9.6-3.1 2.1-1.3 1.7-2.7 2.5-3.9 2.2-1.5-.4-2 .5-2.9 5.2-1.6 7.9-3.7 14.5-7.6 22.8l-3.3 7.2 2.2 5.5c1.2 3.1 2.5 5.6 2.9 5.6.3 0 3-3 6-6.8 2.9-3.7 5.6-6.9 6-7 .5-.2.8-.8.8-1.4 0-.5.8-2.2 1.9-3.6 5.2-7.5 12.1-24.1 12.1-29.1 0-1.2.4-2.1.9-2.1.9 0 2.5-14 1.6-14.8-.3-.3-.5.2-.5 1.1"/></svg>