<svg xmlns="http://www.w3.org/2000/svg" version="1.0" viewBox="0 0 400 400"><path fill="navy" d="M165 10c-3.6 1.1-7.6 1.9-9 2-2.8 0-13.1 3.2-19.8 6.1-2.3 1.1-5 1.9-6 1.9-.9 0-2.8.9-4.2 2s-3.2 2-4 2-2.6.9-4 2-3.1 2-3.8 2c-.8 0-2.5.9-3.9 2s-3.1 2-3.8 2c-.6 0-2 .9-3 2s-2.3 2-3 2-2 .9-3 2-2.3 2-2.9 2c-.7 0-1.9.8-2.8 1.7-.8 1-3.1 2.9-4.9 4.3-4.3 3.1-23.3 22-28.2 28-5.1 6.2-4.9 5.9-8.4 11.5-1.8 2.7-3.6 5.4-4.1 6-.8.9-2.3 3.8-6 11-.8 1.6-2 3.6-2.6 4.4-1 1.3-1.4 2.3-5.6 13.6-1.2 3.3-2.6 6.4-3.1 6.9-.5.6-.9 2-.9 3.2s-.7 3.9-1.6 6-2 6.3-2.5 9.4c-.4 3-1.5 8.6-2.3 12.5-2.5 11.2-2.2 43 .5 57 1.2 6 2.8 13 3.6 15.5s1.8 6.1 2.2 8 1.5 4.9 2.4 6.7 1.7 3.9 1.7 4.8.9 3.3 1.9 5.3c1.1 2 3.2 6.4 4.7 9.7 1.6 3.3 3.1 6.2 3.5 6.5.3.3 1.4 2.2 2.4 4.2.9 2.1 2.1 3.8 2.6 3.8s.9.9.9 2 .4 2 .9 2c.6 0 2 1.8 3.2 4 1.3 2.2 2.6 4 3.1 4 .4 0 .8.7.8 1.5s.9 1.9 2 2.5 2 1.6 2 2.2c0 1.4 24.4 25.8 25.8 25.8.6 0 1.5.7 2 1.6.5.8 1.8 2.1 2.9 2.7 1.2.7 4.2 2.7 6.8 4.5 2.5 1.7 4.8 3.2 5 3.2s2 1.1 4 2.5c7.8 5.3 27.6 14.2 38 17.1 2.8.8 6.2 1.9 7.6 2.5 1.5.6 5.1 1.4 8 1.9 3 .5 9.5 1.5 14.4 2.4 11.8 2.1 35.2 2.1 47 0 5-.9 11.4-1.9 14.4-2.4 2.9-.5 6.5-1.3 8-1.9 1.4-.6 4.9-1.7 7.6-2.5 8.3-2.4 25.5-9.5 30.5-12.7.8-.5 3.4-1.9 5.8-3.1 2.3-1.2 4.2-2.6 4.2-3s.4-.8.9-.8c1.2 0 10.5-6.1 10.9-7.2.2-.4.9-.8 1.4-.8 1.5 0 2.1-.5 18.2-16.6 16.2-16.3 16.6-16.7 16.6-18.2 0-.7.3-1.2.8-1.2.4 0 1.8-1.8 3.2-4s2.8-4 3.1-4c.4 0 .9-.8 1.2-1.7.4-1 1.7-3.6 3.1-5.8 2.4-3.8 8.2-15.3 11.1-22 .7-1.7 2.2-5.1 3.4-7.8 1.1-2.6 2.1-5.4 2.1-6.3 0-.8.9-4.3 1.9-7.7 1.1-3.4 2.5-8.9 3.1-12.2.7-3.3 1.6-8.2 2.2-10.9 1.6-8.2.5-48.7-1.6-57.6-3.1-13.3-5.7-22.4-7.7-26.8-1-2.3-1.9-4.8-1.9-5.5 0-.6-1-3.2-2.2-5.7-1.1-2.5-2.4-5.2-2.8-6s-1.2-2.4-1.8-3.5-1.3-2.7-1.6-3.5c-.4-.8-2-3.5-3.6-6s-3.4-5.4-3.9-6.5c-.5-1.2-1.6-2.7-2.5-3.4s-1.6-1.8-1.6-2.3c0-1.5-11.2-14.8-19.3-23-8-8.1-21.9-19.8-23.6-19.8-.6 0-1.1-.4-1.1-.9s-1.5-1.6-3.4-2.5c-1.8-.8-3.9-2.2-4.6-3.1-.7-.8-1.8-1.5-2.4-1.5s-2.2-.9-3.6-2-3.1-2-3.8-2c-.8 0-2.5-.9-3.9-2s-3.3-2-4.2-2-2.7-.9-4.1-2-3.3-2-4.2-2c-1 0-3.7-.8-6-1.9-6.5-2.8-17-6.1-19.6-6.1-1.2 0-5.5-.9-9.4-2-6.4-1.8-10.2-2-33.3-1.9-22.4 0-26.9.3-32.5 1.9m54.5 15.6c3.9.8 9.7 1.9 13 2.3 3.3.5 7.7 1.6 9.9 2.5 2.1.9 4.7 1.6 5.7 1.6s3.4.9 5.4 2 4.1 2 4.8 2c1 0 17.7 8.2 23.2 11.4 13 7.5 36.2 28 42.2 37.2 1.7 2.6 1.7 2.7-1.2 5-1.7 1.3-3.7 2.4-4.5 2.4-.9 0-2 .4-2.6 1-1.1 1.1-13.9 8.1-19.4 10.6-1.9.9-3.7 1.9-4 2.3-.5.6-5.6 3.4-23.2 12.2-4.2 2.2-8 4.4-8.3 4.9-.3.6-1.4 1-2.3 1s-2.8.9-4.2 2-3.2 2-4 2-2.6.9-4 2-3.2 2-4 2-2.6.9-4 2-3.2 2-4 2-2.6.9-4 2-3.2 2-4 2-2.6.9-4 2-3.2 2-4 2-2.6.9-4 2-3.2 2-4.1 2-2.2.7-2.9 1.5-2.1 1.5-3.1 1.5c-1.9 0-1.9-.1-.3-3.3.9-1.7 2-3.4 2.3-3.7.4-.3 2.2-3 4.1-6s3.7-5.7 4-6 2.1-3 4-6 3.7-5.7 4-6 2.1-3 4-6 3.7-5.7 4-6c1.2-1 6-11 6-12.5 0-1.6-2.6-7.9-6.3-15.4-1.2-2.4-4-5.8-6.1-7.7-3.4-2.9-4.7-3.4-9-3.4-4.9 0-17.9 2-26.1 4.1-2.2.6-6.2 1.5-9 2.1-4.9 1-6.2 1.4-11.8 3.7-1.5.6-3.7 1.1-4.8 1.1s-3.4.8-5.2 1.7-4.8 2-6.7 2.4c-4.3.9-12.1 3.6-17.8 6-2.3 1.1-5.2 1.9-6.3 1.9s-3.7.9-5.9 2-4.6 2-5.5 2-3.5.9-5.7 2c-2.3 1.1-4.8 2-5.5 2s-2.8.8-4.8 1.7c-1.9.9-3.7 1.4-4.1 1.1-1.5-1.5 6.7-11.1 13.4-15.7 4.5-3.2 3.4-3.6-2.4-1.1-12.1 5.3-21.5 11.7-28.6 19.3-6.7 7.1-10.1 15-13.7 31.7-.4 1.9-1.5 4.9-2.4 6.7-2.5 4.7-2.2 10.7.7 13.7 1.8 2 3.3 2.6 6.7 2.6 4.1 0 6.9-1.1 17.4-6.8 1.1-.6 6.1-2.9 11-5.3 5-2.3 9.7-4.6 10.5-5.1 1.6-.9 1.7-.9 15-7 4.7-2.1 10.2-4.8 12.2-5.8 2-1.1 4.3-2 5-2s3.2-.9 5.5-2c2.4-1.2 6.4-3 9-4.2 2.7-1.1 6.5-2.9 8.5-3.9 2-1.1 4.4-1.9 5.2-1.9.9 0 3-.9 4.8-2s4-2 4.8-2 2.8-.7 4.4-1.5c1.6-.9 4.6-2 6.5-2.5 2-.5 5.4-1.5 7.6-2.4 2.2-.8 6.8-1.5 10.2-1.6 9.7 0 10.1 2.9 2.1 16-1.2 1.9-2.8 3.9-3.5 4.3s-1.3 1.2-1.3 1.8c0 .5-1.8 3.4-4 6.4s-4 5.7-4 6-.7 1.3-1.5 2.2c-4.3 4.9-10.5 13.3-10.5 14.2 0 .6-.3 1.1-.7 1.1-.5.1-2.4 2.3-4.3 5-2.6 3.7-5.2 5.9-10.5 8.6-14 7.2-22.5 11.9-23.7 13.2-.6.6-1.7 1.2-2.2 1.2-2.1 0-10.1 8.7-12.3 13.3-2.8 5.8-2.9 10.4-.4 16 1.1 2.3 2.2 5.1 2.5 6.3.5 1.7-4.9 9-26.4 35.9-14.8 18.6-27 34.1-27 34.6s-.6.9-1.2.9c-1.6 0-5.8-4.4-5.8-5.9 0-.6-.4-1.1-.8-1.1-.9 0-7.2-8.6-7.2-9.9 0-.5-.7-1.4-1.5-2.1s-2.1-2.4-2.8-3.9c-.8-1.4-2.3-4.2-3.4-6.2-3.2-5.5-3.9-7-6.3-12.9-1.2-3-3.1-7.4-4.1-9.8-1-2.3-1.9-5.2-1.9-6.3s-.9-4.8-2-8.2c-6.5-20.8-6.5-54.9.1-79.7 2-7.5 2.6-9.3 4.9-16 1.6-4.4 10.4-22.5 13-26.5 1.1-1.7 2.9-4.7 4-6.8 1.1-2 2.5-3.7 3-3.7.6 0 1-.5 1-1.1 0-1.6 10.9-14.5 17.7-21 8.5-8.2 21.2-18.1 28.8-22.5 5.1-3 22.1-11.4 23.1-11.4.5 0 2.9-.9 5.2-2 2.2-1.1 4.7-2 5.4-2s3.7-.9 6.6-2 6.7-2 8.5-2c1.7 0 5-.5 7.2-1.1 11.5-3.2 37.3-3.9 49-1.3m116.7 76.8c7.7 14.1 15.8 32.6 15.8 35.8 0 1 .9 4 2 6.8s2 6.6 2 8.5c0 1.8.7 6.7 1.6 10.7 2.1 9.7 2.1 31.7 0 42.3-.9 4.4-1.6 9.1-1.6 10.5 0 1.3-.9 5.6-2 9.5-4.6 15.5-8.6 25.5-14.3 35.4-1.1 2-2.7 4.9-3.6 6.6-.8 1.6-1.9 3.4-2.3 4-.4.5-3.4 4.6-6.6 9-5.8 7.9-16.9 19.7-25.1 26.5-2.3 1.9-5.3 4.5-6.7 5.8-4.1 3.6-5 2.9-5.1-4.1-.2-17.1-6.7-25.3-35.3-44.2-5.8-3.8-10.7-7.2-11-7.5-.5-.5-10.5-7.4-13.9-9.5l-6-4c-2.4-1.7-5.4-3.7-6.7-4.5-1.2-.8-4.3-3-6.8-4.8-2.6-1.7-5.1-3.2-5.6-3.2-.4 0-1-.4-1.2-.8-.1-.4-2.3-2.1-4.8-3.8s-6.7-4.6-9.5-6.4c-2.7-1.9-5.1-3.8-5.3-4.2s-.9-.8-1.5-.9c-.7 0-3.2-1.6-5.7-3.5-2.5-1.8-5.4-3.8-6.5-4.3-5.3-2.3-5.1-3.3 3.2-16 4.3-6.5 8.5-12.2 9.3-12.5.8-.2 2.6-1.1 4-2 1.4-.8 8.4-4.2 15.5-7.6 10.4-4.9 45.4-22.4 94.1-46.8 3.4-1.7 4.9-2 6.4-1.2 6.3 3.4 15.6-2.9 26.2-17.7 3.6-4.9 5.1-5.3 7-1.9M148.5 232.9c.7 1.3 9.4 7.1 10.5 7.1.4 0 1 .4 1.2.8.4 1 9.6 7.2 10.8 7.2.4 0 1 .4 1.2.8.3.9 21.3 15.2 27.8 19 2.2 1.3 4 2.8 4 3.3s.4.9.9.9c1.2 0 10.5 6.1 10.9 7.2.2.4.8.8 1.2.8 1.2 0 10.4 6.2 10.8 7.2.2.4.9.8 1.5.9.7 0 3.2 1.6 5.7 3.5 2.5 1.8 5.4 3.8 6.5 4.3 1.2.5 2.7 1.6 3.4 2.5s1.9 1.6 2.6 1.6c.6 0 2 .9 3 2s2.2 2 2.6 2c.8 0 10 5.9 10.9 7 .3.4 1.2 1 2 1.3.8.4 3.5 2.1 6 3.7s5.5 3.4 6.8 4c1.2.5 2.2 1.6 2.2 2.4 0 2.5-28.1 15.4-38 17.5-1.9.5-6 1.5-9 2.4-16.8 4.8-55.2 4.8-72 0-3-.9-7.1-1.9-9-2.4-8.4-1.7-31.3-11.9-39.5-17.4-2-1.4-4-2.5-4.5-2.5-.6 0-1-.3-1-.8-.1-.4-2.3-2.3-5.1-4.2-2.7-1.9-6.8-5.1-9-7-4.6-4.1-5.4-2.4 7-13.8 10-9.1 15.1-15.6 15.1-19.4 0-2.7 2.1-6.2 6.5-10.9.8-.9 1.5-1.9 1.5-2.3s2.7-4.1 6-8.1 6-7.8 6-8.3c0-.6.3-1.2.8-1.4.4-.2 2.7-2.9 5.1-6.1 4.3-5.7 5.5-6.5 6.6-4.8"/></svg>